<svg id="Слой_1" data-name="Слой 1" xmlns="http://www.w3.org/2000/svg" viewBox="0 0 1036.7 934.7"><defs><style>.cls-1,.cls-3{fill:#fff;}.cls-2{fill:#565555;}.cls-3{stroke:#fff;stroke-miterlimit:10;}.cls-4{fill:#007c32;}</style></defs><title>Монтажная область 1</title><rect class="cls-1" width="955.8" height="730.1"/><path id="path3031" class="cls-2" d="M.2.5V730.6H148.9V.5ZM246.5.5V730.6H359.6V.5ZM470.8.5V730.6h48.3V.5ZM607,.5V730.6H716.8V.5ZM784.9.5V730.6h74.4V.5ZM906.1.5V730.6h49.7V.5ZM396.3.5V730.6H432V.5Z"/><path class="cls-3" d="M563.7,920.4,327.3,680.6a47.32,47.32,0,0,1,0-66.8L393.9,547a47.08,47.08,0,0,1,66.6,0L597.1,686.6,889.2,383.9a47.08,47.08,0,0,1,66.6,0l66.6,66.8a47.32,47.32,0,0,1,0,66.8L630.3,920.4a47.08,47.08,0,0,1-66.6,0Z"/><path class="cls-4" d="M571.8,888,359.3,674.9a32.83,32.83,0,0,1,0-46.4l46.2-46.4a32.59,32.59,0,0,1,46.2,0L594.8,725.7,901.3,418.2a32.59,32.59,0,0,1,46.2,0l46.2,46.4a32.83,32.83,0,0,1,0,46.4L617.9,888a32.47,32.47,0,0,1-46.1,0Z"/></svg>